<?xml version="1.0" encoding="UTF-8" standalone="no"?>
<svg
   width="78pt"
   height="78pt"
   viewBox="0 0 97.500006 97.499998"
   id="svg2"
   version="1.1"
   inkscape:version="1.1 (c4e8f9ed74, 2021-05-24)"
   sodipodi:docname="logo.svg"
   xmlns:inkscape="http://www.inkscape.org/namespaces/inkscape"
   xmlns:sodipodi="http://sodipodi.sourceforge.net/DTD/sodipodi-0.dtd"
   xmlns="http://www.w3.org/2000/svg"
   xmlns:svg="http://www.w3.org/2000/svg"
   xmlns:rdf="http://www.w3.org/1999/02/22-rdf-syntax-ns#"
   xmlns:cc="http://creativecommons.org/ns#"
   xmlns:dc="http://purl.org/dc/elements/1.1/">
  <defs
     id="defs4" />
  <sodipodi:namedview
     id="base"
     pagecolor="#ffffff"
     bordercolor="#666666"
     borderopacity="1.0"
     inkscape:pageopacity="0"
     inkscape:pageshadow="2"
     inkscape:zoom="4.7368401"
     inkscape:cx="52.038911"
     inkscape:cy="34.200014"
     inkscape:document-units="px"
     inkscape:current-layer="layer1"
     showgrid="false"
     inkscape:window-width="2560"
     inkscape:window-height="1020"
     inkscape:window-x="1080"
     inkscape:window-y="282"
     inkscape:window-maximized="1"
     inkscape:document-rotation="0"
     inkscape:pagecheckerboard="true"
     units="pt"
     fit-margin-top="1.6"
     fit-margin-left="1.6"
     lock-margins="true"
     fit-margin-right="1.6"
     fit-margin-bottom="1.6"
     showborder="true"
     inkscape:showpageshadow="true" />
  <metadata
     id="metadata7">
    <rdf:RDF>
      <cc:Work
         rdf:about="">
        <dc:format>image/svg+xml</dc:format>
        <dc:type
           rdf:resource="http://purl.org/dc/dcmitype/StillImage" />
      </cc:Work>
    </rdf:RDF>
  </metadata>
  <g
     inkscape:label="Layer 1"
     inkscape:groupmode="layer"
     id="layer1"
     transform="translate(-138.86903,-658.45787)">
    <path
       id="path1706"
       style="color:#000000;stroke-width:1.06667;stroke-linecap:round;stroke-linejoin:round;-inkscape-stroke:none;fill:#5796de;fill-opacity:1"
       d="M 39.230469 4.1523438 C 35.348431 5.2012077 31.669421 6.6887675 28.244141 8.5546875 C 13.40124 16.640373 3.3202179 31.823537 2.1191406 49.121094 C 0.64089017 70.410384 12.946188 90.186592 32.705078 98.277344 C 52.463979 106.36813 75.297063 100.98601 89.474609 84.902344 C 103.65217 68.818685 106.03474 45.588343 95.390625 27.152344 C 94.326174 25.308674 93.120105 23.578574 91.8125 21.945312 A 6.5293639 6.5293639 0 0 0 93.298828 17.800781 A 6.5293639 6.5293639 0 0 0 86.769531 11.271484 A 6.5293639 6.5293639 0 0 0 82.199219 13.162109 C 75.384209 8.668368 67.275268 6.1704353 58.796875 6.2011719 C 43.673451 6.2560412 29.669773 14.340429 22.060547 27.410156 C 15.751502 38.24668 14.649974 51.147164 18.736328 62.662109 C 19.493936 65.175804 20.52391 67.6048 21.828125 69.896484 A 0.26669333 0.26669333 0 0 0 21.830078 69.898438 C 23.479657 72.734994 25.521195 75.315264 27.880859 77.578125 C 24.38021 81.387525 20.584954 84.840804 20.908203 85.164062 C 21.233565 85.489432 24.848815 81.83434 28.699219 78.333984 C 29.340254 78.910808 29.99591 79.472452 30.679688 80.001953 A 0.26669333 0.26669333 0 0 0 31.058594 79.636719 C 28.568695 76.140804 26.195108 72.472716 23.988281 68.650391 C 22.63608 66.308302 21.373465 63.940509 20.181641 61.560547 C 19.510141 59.58255 19.01158 57.562218 18.658203 55.521484 C 20.534119 59.729067 22.654619 63.92706 25.033203 68.046875 C 28.052712 73.276816 31.380148 78.225563 34.904297 82.806641 A 0.26669333 0.26669333 0 0 0 34.986328 82.876953 C 36.393592 83.663876 37.8515 84.353288 39.353516 84.939453 A 0.26669333 0.26669333 0 0 0 39.658203 84.521484 C 35.233201 79.10317 31.082107 73.104122 27.380859 66.693359 C 23.70071 60.319152 20.596092 53.762516 18.123047 47.257812 A 0.26669333 0.26669333 0 0 0 18.097656 47.242188 C 18.10497 47.035228 18.110589 46.827961 18.121094 46.621094 C 18.475132 46.616861 18.831795 46.61686 19.1875 46.615234 C 21.646633 53.126001 24.739104 59.698987 28.427734 66.087891 C 32.114565 72.473672 36.259522 78.435298 40.666016 83.818359 C 40.46766 84.158307 40.277014 84.51224 40.076172 84.847656 A 0.26669317 0.26669317 0 0 0 40.208984 85.234375 C 40.856184 85.480668 41.511246 85.706489 42.171875 85.914062 A 0.26669317 0.26669317 0 0 0 42.480469 85.798828 C 48.130271 76.49597 52.847954 65.324762 56.048828 53.378906 C 57.018193 49.761168 57.811042 46.13868 58.466797 42.541016 A 0.26669317 0.26669317 0 0 0 58.4375 42.365234 C 58.012118 41.597317 57.708694 40.773978 57.509766 39.925781 L 57.509766 39.923828 C 57.506651 39.91089 57.505013 39.897714 57.501953 39.884766 C 57.451811 39.666671 57.407766 39.4479 57.373047 39.226562 C 57.353582 39.106986 57.333238 38.98739 57.318359 38.867188 C 57.317716 38.861977 57.317042 38.856774 57.316406 38.851562 C 57.276071 38.504752 57.248195 38.155662 57.246094 37.804688 C 57.246082 37.802723 57.246104 37.800784 57.246094 37.798828 L 57.246094 37.796875 L 57.246094 37.794922 C 57.248227 37.752042 57.250706 37.708949 57.253906 37.666016 A 0.26669317 0.26669317 0 0 0 57.253906 37.664062 A 0.26669317 0.26669317 0 0 0 57.253906 37.662109 A 0.26669317 0.26669317 0 0 0 57.253906 37.660156 A 0.26669317 0.26669317 0 0 0 57.253906 37.658203 C 57.264534 37.088885 57.321909 36.524083 57.431641 35.972656 A 0.26669317 0.26669317 0 0 0 57.451172 35.943359 C 57.480836 35.787958 57.515421 35.634031 57.552734 35.480469 C 57.56255 35.441988 57.57174 35.403574 57.582031 35.365234 C 57.617325 35.227506 57.655858 35.091047 57.697266 34.955078 C 58.146975 33.536607 58.921313 32.227689 59.984375 31.148438 A 0.26669317 0.26669317 0 0 0 60.060547 30.984375 C 60.444099 26.714124 60.595033 22.538337 60.505859 18.519531 A 0.26669317 0.26669317 0 0 0 60.298828 18.265625 C 59.906691 18.177811 59.510149 18.111651 59.115234 18.037109 A 0.26669317 0.26669317 0 0 0 59.076172 18.013672 C 56.821463 17.538611 54.524788 17.286647 52.220703 17.261719 A 0.26669317 0.26669317 0 0 0 52.216797 17.261719 C 50.754952 17.270252 49.295079 17.371833 47.845703 17.5625 A 0.26669317 0.26669317 0 0 0 47.835938 18.089844 C 51.18674 18.651724 54.563405 19.360409 57.941406 20.193359 C 57.939936 20.603603 57.943712 21.010897 57.9375 21.423828 C 52.915719 20.175587 47.895675 19.226694 42.962891 18.582031 A 0.26669317 0.26669317 0 0 0 42.857422 18.587891 C 41.280515 19.020083 39.735708 19.563312 38.234375 20.210938 A 0.26669317 0.26669317 0 0 0 38.3125 20.720703 C 44.705167 21.363807 51.28248 22.527694 57.853516 24.195312 C 57.837091 24.606533 57.823718 25.01624 57.802734 25.429688 C 50.236237 23.495047 42.656468 22.235137 35.375 21.673828 A 0.26669317 0.26669317 0 0 0 35.226562 21.707031 C 34.175064 22.290551 33.154049 22.926904 32.167969 23.615234 A 0.26669317 0.26669317 0 0 0 32.304688 24.099609 C 40.486111 24.58327 49.069034 25.954559 57.626953 28.179688 C 57.596805 28.586028 57.565689 28.992285 57.53125 29.400391 C 48.242999 26.970877 38.924992 25.577191 30.144531 25.220703 A 0.26669317 0.26669317 0 0 0 29.964844 25.279297 C 29.178636 25.914092 28.419918 26.582947 27.691406 27.283203 A 0.26669317 0.26669317 0 0 0 27.869141 27.740234 C 37.266894 28.012816 47.291169 29.482584 57.269531 32.128906 C 57.226465 32.532363 57.179993 32.936964 57.132812 33.341797 C 46.623999 30.540158 36.063866 29.070938 26.271484 28.927734 A 0.26669317 0.26669317 0 0 0 26.068359 29.017578 C 25.481885 29.67841 24.919699 30.361242 24.384766 31.064453 A 0.26669317 0.26669317 0 0 0 24.595703 31.494141 C 34.743266 31.576914 45.701466 33.081804 56.599609 36.001953 C 56.663572 36.019107 56.728806 36.03845 56.792969 36.056641 C 56.737601 36.457416 56.674555 36.859916 56.615234 37.261719 C 56.505107 37.23005 56.397167 37.197983 56.285156 37.167969 C 45.027994 34.151617 33.689332 32.63722 23.3125 32.673828 A 0.26669317 0.26669317 0 0 0 23.087891 32.796875 C 22.655944 33.467627 22.246555 34.152928 21.861328 34.851562 A 0.26669317 0.26669317 0 0 0 22.097656 35.248047 C 32.650659 35.188847 44.159805 36.725477 55.585938 39.787109 C 55.789734 39.841715 55.994074 39.904362 56.197266 39.962891 C 56.130626 40.357705 56.052825 40.75488 55.982422 41.150391 C 55.745251 41.084857 55.509728 41.016959 55.271484 40.953125 C 44.407154 38.042032 33.469815 36.53437 23.392578 36.466797 C 22.626391 36.461464 21.865963 36.46706 21.111328 36.478516 A 0.26669317 0.26669317 0 0 0 20.875 36.628906 C 20.543469 37.303018 20.23486 37.987635 19.947266 38.681641 A 0.26669317 0.26669317 0 0 0 20.197266 39.050781 C 30.991879 38.896104 42.823007 40.42211 54.572266 43.570312 C 54.881305 43.65313 55.188145 43.741053 55.496094 43.826172 C 55.41778 44.220135 55.322245 44.615394 55.240234 45.009766 C 54.912643 44.918879 54.586932 44.824509 54.257812 44.736328 C 43.224522 41.779966 32.1144 40.27272 21.908203 40.25 C 21.094784 40.247867 20.290042 40.258537 19.490234 40.275391 A 0.26669317 0.26669317 0 0 0 19.246094 40.453125 C 19.002158 41.128389 18.778231 41.811051 18.576172 42.5 A 0.26669317 0.26669317 0 0 0 18.835938 42.841797 C 29.723564 42.648634 41.683245 44.173474 53.558594 47.355469 C 53.930106 47.455014 54.298172 47.560172 54.667969 47.662109 C 54.578192 48.054898 54.485996 48.446924 54.392578 48.839844 C 54.009606 48.733751 53.628247 48.624413 53.244141 48.521484 C 42.217762 45.566978 31.115 44.059732 20.914062 44.035156 C 20.062841 44.033023 19.221523 44.044793 18.384766 44.0625 A 0.26669317 0.26669317 0 0 0 18.328125 44.109375 C 18.951616 38.62646 20.684849 33.233161 23.564453 28.287109 C 30.863429 15.750278 44.29594 7.9939938 58.802734 7.9414062 C 66.889786 7.9120672 74.62059 10.281916 81.128906 14.544922 A 6.5293639 6.5293639 0 0 0 80.240234 17.800781 A 6.5293639 6.5293639 0 0 0 81.5 21.630859 L 75.609375 27.521484 C 75.619803 27.134927 75.639078 26.74343 75.644531 26.359375 A 0.26669317 0.26669317 0 0 0 75.554688 26.15625 C 74.89344 25.565071 74.209977 25.000329 73.505859 24.460938 A 0.26669317 0.26669317 0 0 0 73.226562 24.431641 A 0.26669317 0.26669317 0 0 0 73.076172 24.669922 C 73.062318 26.500977 72.986164 28.367907 72.878906 30.25 L 69.625 33.503906 A 1.9785952 1.9785952 0 0 0 69.146484 33.445312 A 1.9785952 1.9785952 0 0 0 67.167969 35.423828 A 1.9785952 1.9785952 0 0 0 69.146484 37.402344 A 1.9785952 1.9785952 0 0 0 71.125 35.423828 A 1.9785952 1.9785952 0 0 0 70.960938 34.632812 L 74 31.59375 C 74.319792 31.966489 74.611972 32.36433 74.871094 32.783203 A 0.26669317 0.26669317 0 0 0 75.363281 32.660156 C 75.423276 31.79457 75.470068 30.9357 75.513672 30.078125 L 76.789062 28.802734 C 76.693631 31.391876 76.512915 34.024115 76.240234 36.691406 A 0.26669317 0.26669317 0 0 0 76.240234 36.748047 C 76.279168 37.096292 76.298508 37.446464 76.298828 37.796875 C 76.291361 38.87503 76.101949 39.94467 75.736328 40.958984 A 0.26669317 0.26669317 0 0 0 75.722656 41.013672 C 74.968139 46.530984 73.852554 52.146287 72.351562 57.748047 C 69.647829 67.838511 65.87083 77.371008 61.357422 85.740234 A 0.26669317 0.26669317 0 0 0 61.666016 86.123047 C 62.640128 85.838812 63.601051 85.512083 64.546875 85.144531 A 0.26669317 0.26669317 0 0 0 64.6875 85.019531 C 68.879767 77.022582 72.414394 67.989517 74.970703 58.449219 C 77.534415 48.881358 78.991009 39.263155 79.353516 30.21875 A 0.26669317 0.26669317 0 0 0 79.292969 30.039062 C 78.73111 29.357946 78.134703 28.707186 77.523438 28.070312 L 82.701172 22.892578 A 6.5293639 6.5293639 0 0 0 86.769531 24.330078 A 6.5293639 6.5293639 0 0 0 90.539062 23.130859 C 91.76378 24.66312 92.884545 26.294394 93.882812 28.023438 C 104.1541 45.813677 101.85985 68.219239 88.167969 83.751953 C 74.476076 99.284646 52.438407 104.476 33.365234 96.666016 C 14.292061 88.856042 2.4305526 69.79151 3.8574219 49.242188 C 5.2842912 28.692867 19.688042 11.236459 39.683594 5.8339844 A 0.87059581 0.8705669 54.029917 0 0 40.296875 4.765625 A 0.87059581 0.8705669 54.029917 0 0 39.230469 4.1523438 z M 62.070312 18.683594 A 0.26669317 0.26669317 0 0 0 61.728516 18.943359 C 61.789849 22.345738 61.663233 25.862708 61.390625 29.441406 A 0.26669317 0.26669317 0 0 0 61.794922 29.6875 C 62.459967 29.278796 63.173531 28.953577 63.917969 28.71875 A 0.26669317 0.26669317 0 0 0 64.103516 28.480469 C 64.285457 25.452853 64.355465 22.479636 64.292969 19.589844 A 0.26669317 0.26669317 0 0 0 64.115234 19.34375 C 63.440536 19.102491 62.758525 18.883092 62.070312 18.683594 z M 65.890625 20.041016 A 0.26669317 0.26669317 0 0 0 65.519531 20.291016 C 65.556865 22.830098 65.495848 25.429918 65.347656 28.070312 A 0.26669317 0.26669317 0 0 0 65.648438 28.349609 C 66.021429 28.300863 66.397289 28.275751 66.773438 28.271484 C 67.072243 28.272007 67.370529 28.285866 67.667969 28.314453 A 0.26669317 0.26669317 0 0 0 67.958984 28.0625 C 68.069374 25.748537 68.126218 23.459703 68.091797 21.226562 A 0.26669317 0.26669317 0 0 0 67.943359 20.992188 C 67.269514 20.65333 66.584897 20.335736 65.890625 20.041016 z M 69.455078 21.943359 A 0.26669317 0.26669317 0 0 0 69.322266 22.175781 C 69.334746 24.199952 69.272779 26.268986 69.167969 28.359375 A 0.26669317 0.26669317 0 0 0 69.361328 28.628906 C 70.052379 28.82481 70.718056 29.099574 71.347656 29.445312 A 0.26669317 0.26669317 0 0 0 71.742188 29.224609 C 71.838294 27.276823 71.903076 25.344537 71.896484 23.451172 A 0.26669317 0.26669317 0 0 0 71.777344 23.230469 C 71.107488 22.777882 70.422176 22.348607 69.722656 21.943359 A 0.26669317 0.26669317 0 0 0 69.455078 21.943359 z M 80.667969 32.117188 A 0.26669317 0.26669317 0 0 0 80.474609 32.357422 C 79.976657 40.882062 78.526052 49.844588 76.136719 58.761719 C 73.757284 67.6419 70.546664 76.094281 66.736328 83.701172 A 0.26669317 0.26669317 0 0 0 67.085938 84.0625 C 68.167367 83.568004 69.222362 83.019643 70.248047 82.417969 A 0.26669317 0.26669317 0 0 0 70.353516 82.302734 C 73.725452 75.266553 76.588477 67.544405 78.753906 59.462891 C 80.923613 51.36544 82.306408 43.228987 82.902344 35.435547 A 0.26669317 0.26669317 0 0 0 82.869141 35.287109 C 82.285215 34.23288 81.648222 33.2093 80.958984 32.220703 A 0.26669317 0.26669317 0 0 0 80.667969 32.117188 z M 64.398438 33.445312 A 1.9785952 1.9785952 0 0 0 62.419922 35.423828 A 1.9785952 1.9785952 0 0 0 64.398438 37.402344 A 1.9785952 1.9785952 0 0 0 66.376953 35.423828 A 1.9785952 1.9785952 0 0 0 64.398438 33.445312 z M 84.080078 38.152344 A 0.26669317 0.26669317 0 0 0 83.855469 38.388672 C 83.155533 45.379328 81.844765 52.593717 79.919922 59.777344 C 78.000146 66.942037 75.539474 73.825084 72.660156 80.214844 A 0.26669317 0.26669317 0 0 0 73.060547 80.539062 C 74.360334 79.583319 75.591962 78.539395 76.748047 77.414062 A 0.26669317 0.26669317 0 0 0 76.808594 77.324219 C 79.03349 71.976262 80.972439 66.323282 82.539062 60.476562 C 84.109216 54.61668 85.256834 48.740652 86.003906 42.984375 A 0.26669317 0.26669317 0 0 0 85.996094 42.876953 C 85.55827 41.3185 85.0138 39.791772 84.365234 38.308594 A 0.26669317 0.26669317 0 0 0 84.080078 38.152344 z M 64.398438 38.193359 A 1.9785952 1.9785952 0 0 0 62.419922 40.171875 A 1.9785952 1.9785952 0 0 0 64.398438 42.150391 A 1.9785952 1.9785952 0 0 0 66.376953 40.171875 A 1.9785952 1.9785952 0 0 0 64.398438 38.193359 z M 69.146484 38.193359 A 1.9785952 1.9785952 0 0 0 67.167969 40.171875 A 1.9785952 1.9785952 0 0 0 69.146484 42.150391 A 1.9785952 1.9785952 0 0 0 71.125 40.171875 A 1.9785952 1.9785952 0 0 0 69.146484 38.193359 z M 59.548828 44.205078 A 0.26669317 0.26669317 0 0 0 59.359375 44.410156 C 58.756207 47.496748 58.04612 50.598255 57.216797 53.693359 C 54.035709 65.565295 49.378512 76.678854 43.769531 86.009766 A 0.26669317 0.26669317 0 0 0 43.9375 86.40625 C 44.639527 86.569034 45.345921 86.710835 46.056641 86.830078 A 0.26669317 0.26669317 0 0 0 46.330078 86.705078 C 51.950665 77.423894 56.645536 66.292013 59.833984 54.392578 C 60.574358 51.629485 61.21397 48.863432 61.771484 46.107422 A 0.26669317 0.26669317 0 0 0 61.654297 45.830078 C 60.978884 45.392937 60.362861 44.873538 59.818359 44.28125 A 0.26669317 0.26669317 0 0 0 59.548828 44.205078 z M 73.681641 44.455078 A 0.26669317 0.26669317 0 0 0 73.476562 44.53125 C 72.758045 45.249202 71.930947 45.848432 71.023438 46.304688 A 0.26669317 0.26669317 0 0 0 70.880859 46.494141 C 70.243451 49.897138 69.483805 53.317874 68.568359 56.734375 C 65.642834 67.652551 61.457727 77.91142 56.443359 86.751953 A 0.26669317 0.26669317 0 0 0 56.716797 87.146484 C 57.610738 87.00833 58.498298 86.835701 59.378906 86.628906 A 0.26669317 0.26669317 0 0 0 59.550781 86.498047 C 64.33909 77.909194 68.359072 67.982191 71.185547 57.433594 C 72.319734 53.200783 73.227982 48.962777 73.929688 44.765625 A 0.26669317 0.26669317 0 0 0 73.681641 44.455078 z M 63.222656 46.615234 A 0.26669317 0.26669317 0 0 0 62.859375 46.806641 C 62.317103 49.436358 61.705419 52.074402 61 54.707031 C 57.849163 66.466114 53.252305 77.483734 47.714844 86.759766 A 0.26669317 0.26669317 0 0 0 47.917969 87.162109 C 48.677787 87.236776 49.440053 87.285555 50.203125 87.310547 A 0.26669317 0.26669317 0 0 0 50.439453 87.181641 C 55.915826 78.009523 60.490362 67.075711 63.617188 55.40625 C 64.322915 52.772447 64.934887 50.135652 65.474609 47.507812 A 0.26669317 0.26669317 0 0 0 65.255859 47.191406 C 64.558238 47.075012 63.877398 46.882701 63.222656 46.615234 z M 22.035156 46.634766 C 22.474247 46.64439 22.917486 46.660848 23.359375 46.675781 C 25.683686 52.523615 28.510707 58.401835 31.818359 64.130859 C 35.123896 69.856213 38.797847 75.241393 42.697266 80.175781 C 42.489845 80.564819 42.290683 80.96562 42.080078 81.349609 C 38.019918 76.250733 34.201989 70.6728 30.773438 64.734375 C 27.344819 58.795853 24.420537 52.700399 22.035156 46.634766 z M 26.294922 46.808594 C 26.742832 46.835212 27.194272 46.868479 27.644531 46.900391 C 29.791548 52.024373 32.317108 57.15622 35.212891 62.171875 C 38.106483 67.183707 41.283596 71.933059 44.644531 76.351562 C 44.447522 76.756489 44.260951 77.173959 44.060547 77.574219 C 40.528371 72.97335 37.192683 68.017736 34.166016 62.775391 C 31.13964 57.533544 28.513089 52.167387 26.294922 46.808594 z M 69.175781 47 C 68.454597 47.189909 67.714329 47.295401 66.96875 47.3125 A 0.26669317 0.26669317 0 0 0 66.712891 47.525391 C 66.156112 50.252548 65.515107 52.989215 64.783203 55.720703 C 61.716121 67.16722 57.283903 77.919052 51.943359 87.039062 A 0.26669317 0.26669317 0 0 0 52.181641 87.439453 C 53.003902 87.41652 53.823965 87.36585 54.642578 87.285156 A 0.26669317 0.26669317 0 0 0 54.847656 87.154297 C 60.049213 78.201369 64.394077 67.64694 67.402344 56.419922 C 68.216658 53.380871 68.911726 50.338375 69.505859 47.308594 A 0.26669317 0.26669317 0 0 0 69.175781 47 z M 30.664062 47.148438 C 31.129091 47.193061 31.595504 47.244795 32.0625 47.294922 C 33.981807 51.633533 36.151129 55.963277 38.603516 60.210938 C 41.05308 64.453687 43.717228 68.496047 46.511719 72.324219 C 46.321661 72.753716 46.141103 73.194106 45.947266 73.619141 C 42.972393 69.588948 40.151979 65.308286 37.558594 60.816406 C 34.964791 56.32381 32.667167 51.74032 30.664062 47.148438 z M 35.162109 47.664062 C 35.641678 47.727452 36.1224 47.794217 36.603516 47.863281 C 38.234368 51.353621 40.022106 54.831482 41.998047 58.253906 C 43.971089 61.671317 46.085214 64.952615 48.289062 68.105469 C 48.107611 68.558526 47.935634 69.019909 47.75 69.46875 C 45.360665 66.084219 43.080577 62.542281 40.953125 58.857422 C 38.82579 55.172766 36.898177 51.425698 35.162109 47.664062 z M 86.763672 47.673828 A 0.26669317 0.26669317 0 0 0 86.494141 47.894531 C 85.780007 52.168088 84.85871 56.485608 83.705078 60.791016 C 82.554454 65.08516 81.200759 69.272131 79.6875 73.320312 A 0.26669317 0.26669317 0 0 0 80.150391 73.576172 C 82.906753 69.954199 84.931745 65.82906 86.113281 61.433594 C 87.293036 57.026063 87.600834 52.431999 87.021484 47.90625 A 0.26669317 0.26669317 0 0 0 86.763672 47.673828 z M 39.833984 48.369141 C 40.318694 48.450978 40.80332 48.533583 41.289062 48.621094 C 42.564656 51.197346 43.928171 53.761873 45.390625 56.294922 C 46.849778 58.822246 48.383539 61.28012 49.972656 63.667969 C 49.805156 64.133656 49.644574 64.60447 49.472656 65.066406 C 47.68886 62.427795 45.967121 59.710209 44.34375 56.898438 C 42.719632 54.085386 41.227485 51.234376 39.833984 48.369141 z M 44.660156 49.275391 C 45.173296 49.38125 45.685527 49.487497 46.199219 49.599609 C 47.028205 51.185571 47.877882 52.767872 48.783203 54.335938 C 49.684999 55.897899 50.626906 57.418625 51.582031 58.923828 C 51.421783 59.42646 51.263076 59.930676 51.097656 60.429688 C 49.943146 58.636135 48.817749 56.811112 47.738281 54.941406 C 46.657032 53.068642 45.637841 51.17605 44.660156 49.275391 z M 49.685547 50.410156 C 50.221988 50.541812 50.758548 50.676029 51.294922 50.814453 C 51.584532 51.33634 51.875772 51.859277 52.175781 52.378906 C 52.473102 52.893874 52.77573 53.402733 53.080078 53.910156 C 52.932063 54.44292 52.778884 54.972503 52.625 55.501953 C 52.11951 54.667824 51.618649 53.828729 51.128906 52.980469 C 50.636156 52.127002 50.157251 51.269487 49.685547 50.410156 z "
       transform="matrix(0.93750002,0,0,0.93750002,138.86903,658.45787)" />
  </g>
</svg>
